# xmcd
#
# Track frame offsets:
#  150
#  14510
#  42313
#  66269
#  94553
#  125358
#  156026
#  175366
#  193972
#  219698
#  270962
#  308841
#
# Disc length: 4501 seconds
#
# Revision: 0
# Processed by: cddbd v1.5.2PL0 Copyright (c) Steve Scherf et al.
# Submitted via: AltoMP3_Maker 3.0
#
DISCID=a711930c
DTITLE=Various Artist - Backwards Records Presents: A Tribe Called Gltitch Vol.1 - Elements of Circuitry
DYEAR=1900
DGENRE=
TTITLE0=Quantum Source - birth
TTITLE1=dRoID - Andavert Traveler
TTITLE2=Nichts - First Pressure
TTITLE3=Nova-Sak - Pure and Brilliant
TTITLE4=blackcell - Coaxing Seed From Soil
TTITLE5=Pentalith - The Eyes of Air
TTITLE6=Sporadik - Object Permanence
TTITLE7=the weirdnerd - rough seas
TTITLE8=440hz - dv8
TTITLE9=kuxaan-sum - writhing ov thee serpents
TTITLE10=Syphilis Sauna - 2 cultures (one slide)
TTITLE11=Necrotek - Spectre
EXTD=
EXTT0=
EXTT1=
EXTT2=
EXTT3=
EXTT4=
EXTT5=
EXTT6=
EXTT7=
EXTT8=
EXTT9=
EXTT10=
EXTT11=
PLAYORDER=
